<svg height="512" viewBox="0 0 128 128" width="512" xmlns="http://www.w3.org/2000/svg"><circle cx="66" cy="66" fill="#e6e7e8" r="58.5"/><circle cx="62" cy="62" fill="#6dc9f7" r="57.5"/><path d="m62 7.5a57.488 57.488 0 0 1 57.462 56c.013-.5.038-1 .038-1.5a57.5 57.5 0 0 0 -115 0c0 .5.025 1 .038 1.5a57.488 57.488 0 0 1 57.462-56z" fill="#fff"/><path d="m89.229 51.839a9.138 9.138 0 0 1 -2.958-.5v9.03a5.009 5.009 0 0 1 -2.1 4.072l-19.317 13.767v-49.054a9.045 9.045 0 0 1 -6 0v9.479l-22.507 16.037a11.016 11.016 0 0 0 -4.618 8.958v9.061a9.039 9.039 0 0 1 6-.031v-9.03a5 5 0 0 1 2.1-4.071l19.025-13.557v48.846a9.045 9.045 0 0 1 6 0v-9.271l22.8-16.245a11.022 11.022 0 0 0 4.616-8.958v-9.061a9.124 9.124 0 0 1 -3.041.528z" fill="#0089ef"/><circle cx="89.229" cy="42.672" fill="#fa759e" r="9.167" transform="matrix(.987 -.16 .16 .987 -5.683 14.844)"/><circle cx="89.229" cy="42.672" fill="#ffd7e5" r="4"/><circle cx="34.771" cy="81.328" fill="#fa759e" r="9.167" transform="matrix(.987 -.16 .16 .987 -12.578 6.62)"/><circle cx="34.771" cy="81.328" fill="#ffd7e5" r="4"/><circle cx="61.854" cy="20.5" fill="#fa759e" r="9.167" transform="matrix(.707 -.707 .707 .707 3.621 49.742)"/><circle cx="61.854" cy="20.5" fill="#ffd7e5" r="4"/><circle cx="61.854" cy="103.5" fill="#fa759e" r="9.167" transform="matrix(.973 -.23 .23 .973 -22.125 16.98)"/><circle cx="61.854" cy="103.5" fill="#ffd7e5" r="4"/><g fill="#3a2c60"><path d="m62 3.5a58.5 58.5 0 1 0 49.592 89.543 1 1 0 1 0 -1.694-1.062 56.258 56.258 0 1 1 6.879-16.081 1 1 0 0 0 1.94.49 58.551 58.551 0 0 0 -56.717-72.89z"/><path d="m116.743 79.669a1 1 0 0 0 -1.269.623 56.457 56.457 0 0 1 -3.328 7.764 1 1 0 1 0 1.774.923 58.257 58.257 0 0 0 3.446-8.04 1 1 0 0 0 -.623-1.27z"/><path d="m88.234 70.145a12.024 12.024 0 0 0 5.037-9.773v-8.372a10.162 10.162 0 1 0 -8 .04v8.336a4.007 4.007 0 0 1 -1.679 3.257l-17.738 12.634v-46.423a10.167 10.167 0 1 0 -8 0v8.274l-22.087 15.737a12.019 12.019 0 0 0 -5.038 9.773v8.372a10.161 10.161 0 1 0 8-.04v-8.332a4 4 0 0 1 1.68-3.257l17.445-12.43v46.215a10.167 10.167 0 1 0 8 0v-8.065zm-7.172-27.473a8.167 8.167 0 1 1 8.167 8.167 8.177 8.177 0 0 1 -8.167-8.167zm-27.375-22.172a8.167 8.167 0 1 1 8.167 8.166 8.177 8.177 0 0 1 -8.167-8.166zm-10.75 60.828a8.167 8.167 0 1 1 -8.166-8.167 8.176 8.176 0 0 1 8.166 8.167zm27.084 22.172a8.167 8.167 0 1 1 -8.167-8.167 8.177 8.177 0 0 1 8.167 8.167zm-8.167-10.167a10.223 10.223 0 0 0 -2 .2v-47.533a1 1 0 0 0 -1.58-.814l-19.025 13.556a6.007 6.007 0 0 0 -2.52 4.886v7.727a10.1 10.1 0 0 0 -4 .012v-7.739a10.016 10.016 0 0 1 4.2-8.144l22.505-16.037a1 1 0 0 0 .42-.814v-8.166a10.15 10.15 0 0 0 4 0v47.741a1 1 0 0 0 1.58.814l19.318-13.764a6.01 6.01 0 0 0 2.519-4.886v-7.727a10.1 10.1 0 0 0 4-.012v7.739a10.019 10.019 0 0 1 -4.2 8.144l-22.8 16.245a1 1 0 0 0 -.42.815v7.957a10.215 10.215 0 0 0 -1.997-.2z"/><path d="m94.229 42.672a5 5 0 1 0 -5 5 5.006 5.006 0 0 0 5-5zm-8 0a3 3 0 1 1 3 3 3 3 0 0 1 -3-3z"/><path d="m29.771 81.328a5 5 0 1 0 5-5 5.006 5.006 0 0 0 -5 5zm8 0a3 3 0 1 1 -3-3 3 3 0 0 1 3 3z"/><path d="m66.854 20.5a5 5 0 1 0 -5 5 5.006 5.006 0 0 0 5-5zm-8 0a3 3 0 1 1 3 3 3 3 0 0 1 -3-3z"/><path d="m56.854 103.5a5 5 0 1 0 5-5 5.006 5.006 0 0 0 -5 5zm8 0a3 3 0 1 1 -3-3 3 3 0 0 1 3 3z"/></g></svg>